<svg width="52" height="42" viewBox="0 0 52 42" fill="none" xmlns="http://www.w3.org/2000/svg">
<path fill-rule="evenodd" clip-rule="evenodd" d="M41.6494 30.2517C43.4881 30.8766 45.1537 31.6177 47.0361 32.2169C47.242 32.317 47.2693 32.2076 47.2707 32.0718L47.2691 31.9584C47.2685 31.8963 47.2711 31.8389 47.2914 31.8037C47.384 31.5648 47.6133 31.5145 47.8026 31.4208C48.4182 31.1966 49.2996 31.2883 49.7089 31.8843L49.7234 37.8239L52 38.1822V39.4178L12.5694 34.8945C11.2148 34.6441 9.37092 34.72 8.27892 35.4371C7.39544 36.0232 6.77196 37.0294 6.98516 38.144C7.12764 38.9511 7.84472 39.6132 8.54828 39.9295C8.91904 40.1186 9.12236 40.2239 9.61324 40.4093C9.87896 40.5952 9.31788 40.568 9.12236 40.6481L0 42V41.086L2.56048 40.7147V34.0837C2.5844 33.5798 3.08776 33.3687 3.6348 33.3687C4.3108 33.3687 4.79856 33.6348 4.79856 34.0208V40.3836L7.12764 40.0379C6.29564 39.192 5.79748 38.0099 6.08088 36.7759C6.3856 35.4371 7.72772 34.3618 8.97156 34.1387L17.5313 33.0906L40.6983 30.3067L41.6494 30.2517ZM41.2755 31.6581L17.419 34.2455L47.2654 37.5867V33.7029L41.2755 31.6581ZM45.7168 0L48.3782 27.988C48.4182 28.2635 48.3928 28.6385 48.035 28.7291C47.7542 28.837 47.5732 28.6385 47.4833 28.451L46.6955 24.9977L41.3733 22.8644L39.2777 23.2195C39.8185 23.2834 40.3016 23.4971 40.7061 23.8596L39.9402 25.2062C39.4524 24.7851 38.7577 24.8238 38.2507 24.905C37.7645 24.9831 37.5768 25.2586 37.5762 25.5681C37.5757 25.9416 37.9241 26.0165 38.5575 26.0699C39.5086 26.1736 40.8008 26.2647 40.7976 27.9115C40.7966 28.5264 40.6474 29.0711 40.3603 29.5116L36.1436 30.0406C36.0641 29.9715 35.9882 29.8982 35.9169 29.8201L36.6148 28.4777C37.0167 28.9323 37.7062 29.0879 38.4842 28.9842C38.9922 28.9171 39.3047 28.6055 39.3052 28.2598C39.3063 27.8492 38.934 27.7397 38.3235 27.6648C37.387 27.5632 36.1348 27.5082 36.1379 25.8379C36.1384 25.6168 36.165 25.3974 36.2175 25.1842L33.4729 24.3503C34.5608 24.6887 35.3054 25.7954 35.3028 27.3872C35.3007 28.54 34.9071 29.553 34.2758 30.2742L30.2604 30.7781C29.6712 30.2318 29.3119 29.3587 29.3134 28.2656C29.315 27.305 29.5953 26.4323 30.0648 25.7467L28.3005 25.0784L28.2844 25.0815L28.274 31.0269L27.0026 31.1861L27.0104 26.7435L24.4592 25.9688C25.3588 26.2794 25.9449 27.2473 25.9423 28.75C25.9407 29.872 25.611 30.7949 25.0708 31.4281L21.464 31.8807L21.4724 26.811L20.422 26.413L20.411 26.4145L20.4053 29.938C20.4038 30.7435 20.2363 31.5046 19.8853 32.0786L16.9026 32.4521C16.5698 31.9791 16.4138 31.2872 16.4154 30.5215L16.42 27.5527L15.573 27.2342H15.5719L15.717 28.6359L14.5772 28.8181L14.5704 32.7449L13.5346 32.8743L13.5413 28.9831L12.4337 29.1596L12.505 28.4552L11.2128 28.0623C11.5045 28.1524 11.7692 28.3258 11.9964 28.5851L11.491 29.6598C11.1686 29.3063 10.7094 29.321 10.3735 29.3744C10.0506 29.4262 9.92628 29.6462 9.92576 29.8987C9.92524 30.203 10.1566 30.2716 10.5763 30.3303C11.206 30.4361 12.0583 30.5398 12.0557 31.8765C12.0552 32.3405 11.9694 32.7522 11.8056 33.0911L8.91748 33.453C8.8842 33.4137 8.85144 33.3734 8.82076 33.3315L9.28564 32.2494C9.55344 32.6286 10.011 32.7695 10.5269 32.7009C10.8633 32.6564 11.0703 32.4091 11.0708 32.1279C11.0713 31.7942 10.8254 31.6973 10.4208 31.6235C9.7994 31.5203 8.96636 31.4485 8.96896 30.0846C8.96948 29.6232 9.08596 29.1727 9.31112 28.8087L8.37512 28.4531L8.36056 27.2369L41.3733 21.3575L46.3169 23.3389L44.6295 15.9484L41.5147 14.7239L39.1524 19.3326L39.1492 21.1385L37.7426 21.391L37.7458 19.6028L36.0272 16.875L34.464 16.3999L34.4578 16.4005C34.6788 16.4591 34.8639 16.5597 35.01 16.7053C35.1645 16.8588 35.281 17.0494 35.3595 17.2773C35.438 17.5056 35.477 17.8906 35.4765 18.1703C35.4754 18.671 35.3688 19.2289 35.1577 19.5814C34.97 19.8935 34.7043 20.2209 34.3606 20.4215L35.3054 21.8284L33.7116 22.1143L32.85 20.819L32.8474 22.2699L31.511 22.5093L31.5198 17.3731L30.6384 17.0395L30.6316 20.8128C30.6306 21.5743 30.5344 22.2285 30.2448 22.7366L26.7868 23.3573C26.5106 22.9613 26.4207 22.3621 26.4217 21.6351L26.428 18.3348L25.7535 18.0792L25.8528 19.4756L24.5409 19.7448L24.5341 23.7616L23.347 23.9748L23.3537 19.9889L22.0615 20.2544L22.1328 19.2472L21.5015 19.0083L21.4926 24.3079L20.0117 24.5735L18.0092 22.2725L18.0045 24.9338L16.8704 25.137L16.8787 20.4969L15.9812 20.157L16.1912 21.4214L13.8221 21.909L13.8206 22.8843L15.7586 22.4972L15.7565 23.7972L13.8185 24.1702L13.8169 25.1763L16.2126 24.7301L16.1247 25.2711L12.7353 25.8792L12.7431 21.6283L11.4676 21.2485C11.7822 21.3491 12.0494 21.5303 12.246 21.7304L11.725 22.8832C11.4452 22.5506 11.0495 22.5171 10.7058 22.5878C10.0719 22.7177 9.60856 23.4212 9.607 24.3095C9.60544 25.1968 10.0953 25.6875 10.7297 25.5681C11.1062 25.4979 11.4847 25.2114 11.7213 24.8835L12.2387 25.8326C12.2018 25.885 12.1618 25.9374 12.1207 25.9897L9.20036 26.514C8.80048 26.0772 8.5514 25.3827 8.55296 24.5064C8.55452 23.5741 8.82232 22.7408 9.25444 22.1395L8.3174 21.7833V20.6561L41.6842 13.0614L44.2094 14.122L43.2848 10.1173L40.9916 9.13517V12.4638L39.8039 12.7026V10.4095C39.8011 10.3249 39.8075 10.2313 39.8147 10.1377L39.823 10.0259C39.8433 9.73102 39.8358 9.47305 39.52 9.54738C39.3323 9.54738 39.012 9.78623 38.986 9.98316V12.9273L37.6667 13.218V7.93049L32.3294 5.59707L31.9722 5.51641C32.4449 6.24445 32.7382 7.05683 32.9051 7.91582C33.2259 10.9794 31.6898 13.4841 29.2578 15.1963L24.6657 16.3088C23.1395 16.456 21.6809 15.884 20.6419 14.6762C19.4282 13.1792 19.3253 10.8715 19.9009 9.01575L18.8765 8.51502C20.3486 12.2375 15.6395 15.036 15.1684 16.3622L19.1334 15.498V17.5942L9.40472 19.9035V18.5506L14.5912 12.5931C15.3572 11.7205 16.3322 10.9794 16.0342 10.1057C15.9219 9.80037 15.5995 9.65214 15.3462 9.55995C14.5382 9.40334 13.8694 9.74747 13.2959 10.2477C12.8612 10.6887 12.6703 11.2591 12.6433 11.5482L9.4848 12.2763C9.60024 11.4445 9.74116 10.8458 10.0204 10.1848C10.8909 8.2877 12.7972 6.84051 14.7436 6.56605C16.8693 6.20412 18.317 7.65289 20.1703 8.30237C21.0137 6.78866 22.4375 5.19795 23.919 4.37457C25.8684 3.1568 28.7206 3.22489 30.7939 4.10954L37.1571 6.88084L37.7052 7.08145V5.20947L38.9735 4.62808L42.4044 6.29945L40.9869 0.0115231L45.7168 0ZM2.65908 30.1299L2.69989 30.1354C3.63433 30.2517 4.48089 30.468 5.38673 30.6764C5.63217 30.7555 5.47981 31.0625 5.41065 31.2625C5.18133 31.8314 4.62181 32.2169 4.04149 32.2284C3.44193 32.2834 2.91621 32.0571 2.62293 31.3532C2.41753 30.8362 2.35669 30.0563 2.69989 30.1354L2.65908 30.1299ZM17.5245 26.909L17.5188 30.1999C17.5178 30.93 17.784 31.5821 18.3804 31.5025C18.9764 31.4224 19.2514 30.688 19.2525 29.9484L19.2566 27.5647L17.5245 26.909ZM24.7182 28.9297C24.7203 27.9246 24.2497 27.2761 23.3964 27.4118L22.6429 27.5323L22.6372 30.9473L23.3834 30.8472C24.2013 30.7373 24.7166 29.8961 24.7182 28.9297ZM49.2997 28.9257C49.6689 28.8613 49.6461 28.9791 49.632 29.1682C49.7875 29.869 49.2888 30.6521 48.5832 30.8506C47.5843 31.0622 46.9317 30.518 46.6914 29.7365C46.6129 29.4993 46.7153 29.4296 46.9707 29.3798C47.7382 29.262 48.5307 29.0891 49.2997 28.9257ZM10.2461 0.0115231L4.79856 29.354C4.7086 29.6462 4.3654 29.7897 4.09604 29.7237C3.83656 29.6185 3.71124 29.4441 3.71124 29.0743L4.99876 0.0115231H10.2461ZM33.7657 27.6124C33.7672 26.4784 33.1703 25.8211 32.2535 25.9678C31.3394 26.1134 30.7601 26.943 30.758 28.054C30.7559 29.1544 31.3331 29.8243 32.2468 29.7023C33.164 29.5797 33.7636 28.7364 33.7657 27.6124ZM17.8136 19.7636L17.7918 19.7683L20.3221 22.8251L20.3258 20.7148L17.8136 19.7636ZM27.6572 17.6795L27.651 21.2155C27.65 21.9567 27.769 22.4695 28.5048 22.3317C29.2386 22.1945 29.3259 21.6387 29.3275 20.8908L29.3316 18.3138L27.6572 17.6795ZM33.956 17.9812C33.8109 17.8576 33.6664 17.8697 33.242 17.9571L32.8546 18.0367L32.852 19.4237L33.2394 19.3472C33.6716 19.2613 33.7938 19.2116 33.9305 19.0497C34.0382 18.9219 34.1406 18.7087 34.1411 18.4484C34.1411 18.1886 34.0642 18.0739 33.956 17.9812ZM37.0022 15.6829L36.9944 15.6845L38.4394 17.9582L39.1862 16.5099L37.0022 15.6829ZM35.5295 8.42006V9.69231L36.5669 9.42781V10.5806L35.5295 10.81V13.738L34.3413 14.014V8.69766L35.5295 8.42006ZM27.6063 6.44349C26.234 6.23188 25.0604 6.81485 24.0614 7.6885C23.037 8.65906 22.3876 9.9575 22.6793 11.4157C22.8961 12.4103 23.9351 13.1546 24.8295 13.3259C26.4904 13.5375 28.028 12.8367 29.0909 11.4157C29.758 10.4886 30.1283 9.05608 29.5542 7.95511C29.1294 7.17311 28.4383 6.58857 27.6063 6.44349ZM39.0504 5.39698V8.64597C39.2766 8.30237 39.5486 8.19238 39.8918 8.19238C40.2126 8.17928 40.6598 8.32803 41.0316 8.48621L43.1163 9.41487L42.5953 7.10868L39.0504 5.39698Z" fill="#907137"/>
</svg>
